<svg width="240" height="185" viewBox="0 0 240 185" fill="none" xmlns="http://www.w3.org/2000/svg">
    <path fill-rule="evenodd" clip-rule="evenodd"
        d="M20 0C8.95431 0 0 8.9543 0 20V165C0 176.046 8.95429 185 20 185H121.618C119.889 182.011 116.657 180 112.956 180H60.5665C57.8051 180 55.5665 177.761 55.5665 175C55.5665 172.239 57.8051 170 60.5665 170H88.1281C93.6509 170 98.1281 165.523 98.1281 160C98.1281 154.477 93.6509 150 88.1281 150H60.5665C57.8051 150 55.5665 147.761 55.5665 145C55.5665 142.239 57.8051 140 60.5665 140H192.167C197.69 140 202.167 135.523 202.167 130C202.167 124.477 197.69 120 192.167 120H60.5665C57.8051 120 55.5665 117.761 55.5665 115C55.5665 112.239 57.8051 110 60.5665 110H230C235.523 110 240 105.523 240 100C240 94.4771 235.523 90 230 90H60.5665C57.8051 90 55.5665 87.7614 55.5665 85C55.5665 82.2386 57.8051 80 60.5665 80H129.507C135.03 80 139.507 75.5229 139.507 70C139.507 64.4771 135.03 60 129.507 60H60.5665C57.8051 60 55.5665 57.7614 55.5665 55C55.5665 52.2386 57.8051 50 60.5665 50H168.522C174.045 50 178.522 45.5228 178.522 40C178.522 34.4772 174.045 30 168.522 30H60.5665C57.8051 30 55.5665 27.7614 55.5665 25C55.5665 22.2386 57.8051 20 60.5665 20H92.8572C98.38 20 102.857 15.5228 102.857 10C102.857 4.47715 98.38 0 92.8571 0H20Z"
        fill="white" fill-opacity="0.04" />
</svg>